# xmcd CD database file generated by Grip 2.96
# 
# Track frame offsets:
#       150
#       13315
#       27525
#       41997
#       55021
#       69471
#       83593
#       111251
#       124002
#       139550
#       151045
#       166042
#       174857
#       189157
#       202138
#       216027
#       232043
#       246482
#       261627
#       276870
# 
# Disc length: 3892 seconds
# 
# Revision: 0
# Processed by: cddbd v1.4PL0 Copyright (c) Steve Scherf et al.
# Submitted via: Grip 2.96
# 
DISCID=1e0f3214
DTITLE=Ethyl Merman - Ethyl Merman
DYEAR=1900
DGENRE=
TTITLE0=An Earful Of Music
TTITLE1=I Get A Kick Out Of You
TTITLE2=You're The Top (w/ Bing Crosby)
TTITLE3=The Lady In Red
TTITLE4=Ridin' High
TTITLE5=Down In The Depths On The 90th Floor
TTITLE6=Eadie Was A Lady
TTITLE7=It's De Lovely
TTITLE8=How Deep Is The Ocean?
TTITLE9=A Lady Needs A Change
TTITLE10=It's The Animal In Me
TTITLE11=Make It Another Old-Fashioned, Please
TTITLE12=Satan's Li'l Lamb
TTITLE13=Friendship (w/ Bert Lahr)
TTITLE14=This Is It
TTITLE15=I Gotta Right To Sing The Blues
TTITLE16=Red, Hot and Blue
TTITLE17=I'll Pay The Check
TTITLE18=Let's Be Buddies (w/ Joan Carroll)
TTITLE19=Doin' What Comes Naturally
EXTD=
EXTT0=
EXTT1=
EXTT2=
EXTT3=
EXTT4=
EXTT5=
EXTT6=
EXTT7=
EXTT8=
EXTT9=
EXTT10=
EXTT11=
EXTT12=
EXTT13=
EXTT14=
EXTT15=
EXTT16=
EXTT17=
EXTT18=
EXTT19=
PLAYORDER=
